# xmcd
#
# Track frame offsets: 
#        150
#        17678
#        34391
#        61820
#        78402
#        97048
#        108123
#        128561
#        143740
#        184877
#        218354
#        244761
#        261805
#        277178
#        289394
#        302692
#
# Disc length: 4328 seconds
#
# Revision: 0
# Processed by: cddbd v1.5.2PL0 Copyright (c) Steve Scherf et al.
# Submitted via: ExactAudioCopy v0.99pb4
#
DISCID=e310e610
DTITLE=Howlin' Bill - Live at Ancienne Belgique
DYEAR=2009
DGENRE=Blues
TTITLE0=Next Time
TTITLE1=Foxy Little Lday
TTITLE2=Six Feet Five
TTITLE3=My Own World
TTITLE4=Gone Too Soon
TTITLE5=Circus Is Coming To Town
TTITLE6=Bully
TTITLE7=Devil And The Deep Blue Sea
TTITLE8=Don't You Know
TTITLE9=A Man's Got To Do
TTITLE10=Remember The Day
TTITLE11=Second Hand Shoes
TTITLE12=Sipido
TTITLE13=You Got It
TTITLE14=Pick Up Lines
TTITLE15=Hell Freezes Over
EXTD=
EXTT0=
EXTT1=
EXTT2=
EXTT3=
EXTT4=
EXTT5=
EXTT6=
EXTT7=
EXTT8=
EXTT9=
EXTT10=
EXTT11=
EXTT12=
EXTT13=
EXTT14=
EXTT15=
PLAYORDER=
